<?xml version="1.0" encoding="UTF-8"?>
<svg id="Camada_2" xmlns="http://www.w3.org/2000/svg" viewBox="0 0 441.02 378.28">
  <defs>
    <style>
      .cls-1 {
        fill: #231f20;
      }
    </style>
  </defs>
  <g id="Layer_3">
    <path class="cls-1" d="M434.08,257.46c0,31.75-25.73,34.09-57.48,34.09s-57.48-2.34-57.48-34.09l57.48-123.71-50.55,123.71h101.1l-50.55-123.71,57.48,123.71Z"/>
    <path class="cls-1" d="M441.02,59.12c-.56,6.65-1.74,26.23-13.4,44.94-15.71,25.23-46.95,36.55-75.01,26.78-.66-.23-1.33-.47-1.99-.72-26.44-9.7-59.92-36.67-86.42-38.39-13.67-.9-24.86,9.8-24.86,23.49v154.65c2.16,2.75,2.2,6.6.12,9.41l-.12.16,12.61,54.7h4.92c10.07,0,18.24,8.17,18.24,18.25,6.09,1.02,14.92,3.2,24.55,8.26,9.81,5.15,16.71,11.31,21.02,15.8.84.53.47,1.83-.52,1.83H120.86c-.99,0-1.36-1.3-.52-1.83,4.32-4.49,11.21-10.65,21.03-15.8,9.63-5.06,18.45-7.24,24.54-8.26,0-10.08,8.17-18.25,18.24-18.25h4.92l12.61-54.7-.12-.16c-2.08-2.81-2.03-6.66.12-9.41V115.22c0-13.69-11.19-24.39-24.86-23.49-26.49,1.72-59.98,28.69-86.42,38.39-.66.25-1.32.49-1.99.72-28.06,9.77-59.3-1.55-75.01-26.78C1.75,85.35.56,65.77,0,59.12c4.78,9.09,14.74,35.55,35.39,45.11,26.4,12.21,48.13,8.74,80.61-17.71,20.85-16.97,51.92-26.29,78.81-26.33h.52v-5c0-3.17,2.62-5.54,5.79-5.6,3.08-.06,5.56-2.58,5.56-5.67v-12.65l7.1-27.35c1.05-2.38,4.14-3.91,6.73-3.92,2.6.01,5.68,1.54,6.73,3.92l7.1,27.35v12.65c0,3.09,2.48,5.61,5.56,5.67,3.17.06,5.8,2.43,5.8,5.6v5h.52c26.88.04,57.96,9.36,78.8,26.33,32.48,26.45,54.21,29.92,80.61,17.71,20.65-9.56,30.61-36.02,35.39-45.11Z"/>
    <path class="cls-1" d="M121.91,257.46c0,31.75-25.74,34.09-57.49,34.09s-57.48-2.34-57.48-34.09l57.48-123.71-50.55,123.71h101.1l-50.55-123.71,57.49,123.71Z"/>
  </g>
</svg>